{
	"asset": {
		"version": "2.0",
		"generator": "Blockbench 4.10.0 glTF exporter"
	},
	"scenes": [{ "nodes": [2], "name": "blockbench_export" }],
	"scene": 0,
	"nodes": [
		{
			"rotation": [0, 0, 0.707106781186548, 0.707106781186547],
			"translation": [0, 0.0625, 0],
			"name": "cylinder",
			"mesh": 0
		},
		{
			"rotation": [0, 0, -0.707106781186548, 0.707106781186547],
			"translation": [
				0.0031249999999999993, 0.0625, -2.2303587548273236e-18
			],
			"name": "cone",
			"mesh": 1
		},
		{ "children": [0, 1] }
	],
	"bufferViews": [
		{
			"buffer": 0,
			"byteOffset": 0,
			"byteLength": 1440,
			"target": 34962,
			"byteStride": 12
		},
		{
			"buffer": 0,
			"byteOffset": 1440,
			"byteLength": 1440,
			"target": 34962,
			"byteStride": 12
		},
		{
			"buffer": 0,
			"byteOffset": 2880,
			"byteLength": 960,
			"target": 34962,
			"byteStride": 8
		},
		{ "buffer": 0, "byteOffset": 3840, "byteLength": 288, "target": 34963 },
		{
			"buffer": 0,
			"byteOffset": 4128,
			"byteLength": 864,
			"target": 34962,
			"byteStride": 12
		},
		{
			"buffer": 0,
			"byteOffset": 4992,
			"byteLength": 864,
			"target": 34962,
			"byteStride": 12
		},
		{
			"buffer": 0,
			"byteOffset": 5856,
			"byteLength": 576,
			"target": 34962,
			"byteStride": 8
		},
		{ "buffer": 0, "byteOffset": 6432, "byteLength": 144, "target": 34963 }
	],
	"buffers": [
		{
			"byteLength": 6576,
			"uri": "data:application/octet-stream;base64,"
		}
	],
	"accessors": [
		{
			"bufferView": 0,
			"componentType": 5126,
			"count": 120,
			"max": [0.03125, 0.5, 0.03125],
			"min": [-0.03125, 0, -0.03125],
			"type": "VEC3"
		},
		{
			"bufferView": 1,
			"componentType": 5126,
			"count": 120,
			"max": [1, 1, 1],
			"min": [-1, -1, -1],
			"type": "VEC3"
		},
		{
			"bufferView": 2,
			"componentType": 5126,
			"count": 120,
			"max": [0.5625, 0.5],
			"min": [0.006124999839812517, 0],
			"type": "VEC2"
		},
		{
			"bufferView": 3,
			"componentType": 5123,
			"count": 144,
			"max": [119],
			"min": [0],
			"type": "SCALAR"
		},
		{
			"bufferView": 4,
			"componentType": 5126,
			"count": 72,
			"max": [0.03125, 0.0580357126891613, 0.03125],
			"min": [-0.03125, -0.004464285913854837, -0.03125],
			"type": "VEC3"
		},
		{
			"bufferView": 5,
			"componentType": 5126,
			"count": 72,
			"max": [0.8944271802902222, 0.4472135901451111, 0.8944271802902222],
			"min": [-0.8944271802902222, -1, -0.8944271802902222],
			"type": "VEC3"
		},
		{
			"bufferView": 6,
			"componentType": 5126,
			"count": 72,
			"max": [0.30590057373046875, 0.25737500190734863],
			"min": [0, 0],
			"type": "VEC2"
		},
		{
			"bufferView": 7,
			"componentType": 5123,
			"count": 72,
			"max": [71],
			"min": [0],
			"type": "SCALAR"
		}
	],
	"materials": [
		{
			"pbrMetallicRoughness": {
				"metallicFactor": 0,
				"roughnessFactor": 1,
				"baseColorTexture": { "index": 0 }
			},
			"alphaMode": "MASK",
			"alphaCutoff": 0.05,
			"doubleSided": true
		},
		{
			"pbrMetallicRoughness": {
				"metallicFactor": 0,
				"roughnessFactor": 1,
				"baseColorTexture": { "index": 1 }
			},
			"alphaMode": "MASK",
			"alphaCutoff": 0.05,
			"doubleSided": true
		}
	],
	"textures": [
		{ "sampler": 0, "source": 0, "name": "texture.png" },
		{ "sampler": 1, "source": 1, "name": "texture" }
	],
	"samplers": [
		{
			"magFilter": 9728,
			"minFilter": 9728,
			"wrapS": 33071,
			"wrapT": 33071
		},
		{ "magFilter": 9728, "minFilter": 9728, "wrapS": 33071, "wrapT": 33071 }
	],
	"images": [
		{
			"mimeType": "image/png",
			"uri": "data:image/png;base64,"
		},
		{
			"mimeType": "image/png",
			"uri": "data:image/png;base64,"
		}
	],
	"meshes": [
		{
			"primitives": [
				{
					"mode": 4,
					"attributes": {
						"POSITION": 0,
						"NORMAL": 1,
						"TEXCOORD_0": 2
					},
					"indices": 3,
					"material": 0
				}
			]
		},
		{
			"primitives": [
				{
					"mode": 4,
					"attributes": {
						"POSITION": 4,
						"NORMAL": 5,
						"TEXCOORD_0": 6
					},
					"indices": 7,
					"material": 1
				}
			]
		}
	]
}
